<?xml version="1.0" encoding="utf-8"?>
<!-- Generator: Adobe Illustrator 25.2.1, SVG Export Plug-In . SVG Version: 6.00 Build 0)  -->
<svg version="1.1" id="Layer_1" xmlns="http://www.w3.org/2000/svg" xmlns:xlink="http://www.w3.org/1999/xlink" x="0px" y="0px"
	 viewBox="0 0 532 89.5" style="enable-background:new 0 0 532 89.5;" xml:space="preserve">
<style type="text/css">
	.st0{fill:#231F20;stroke:#231F20;stroke-miterlimit:10;}
	.st1{fill:#231F20;stroke:#FFFFFF;stroke-miterlimit:10;}
</style>
<polygon class="st0" points="3.5,19.1 3.5,37.5 3,37.5 26.6,37.5 26.6,88.3 45,74.4 45,37.5 68.4,37.5 67.9,37.5 67.9,18.6 "/>
<polygon class="st0" points="95.7,55.9 77.3,74.4 77.3,19.1 95.7,19 "/>
<polygon class="st0" points="132.7,19 114.2,19 96.1,37.5 132.6,37.5 "/>
<path class="st1" d="M197.1,37.5L178.4,19l-18.3,0.1l-18.5,18.7l0.1,18.3l18.4,18.4l18.3,0.1l18.4-18.4l-18.2-0.1L197.1,37.5z
	 M160.2,55.8l-0.1-18.2l18.3,0.1L160.2,55.8z"/>
<path class="st0" d="M261.8,37.5L243.1,19l-18.3,0.1l-18.5,18.7l0.1,18.3l18.4,18.4l18.3,0.1l18.4-18.4l-18.2-0.1L261.8,37.5z
	 M224.9,55.8V37.6l18.3,0.1L224.9,55.8z"/>
<polygon class="st0" points="271,19.3 271,37.7 270.5,37.7 294.1,37.7 294.1,88.5 312.5,74.6 312.5,37.7 335.9,37.7 335.4,37.7 
	335.4,18.8 "/>
<polygon class="st0" points="427.7,69.8 427.8,0.5 409.3,19.2 409.2,88.2 "/>
<polygon class="st0" points="464.7,19.1 446.3,19.1 446.2,19.1 427.8,37.3 427.8,37.3 464.7,37.6 "/>
<polygon class="st0" points="464.7,74.4 464.6,55.9 428.1,37.7 446.2,74.3 "/>
<path class="st0" d="M381.5,19l-18.3,0.1l-18.5,18.7l0.1,18.3l18.6,18.5l18.3-0.1l18.2-18.3l0.3-18.9L381.5,19z M381.6,56v-0.2
	h-18.4V56V37.5l0,0v-0.3v0.3h18.4v-0.2v0.2l0,0v18.2l0,0V56z"/>
<path class="st0" d="M529.2,37.5l-18.7-18.6L492.2,19l-18.5,18.7l0.1,18.3l18.4,18.4l18.3,0.1l18.4-18.4L510.7,56L529.2,37.5z
	 M492.3,55.7V37.5l18.3,0.1L492.3,55.7z"/>
</svg>
